<svg width="14" height="10" viewBox="0 0 14 10" fill="none" xmlns="http://www.w3.org/2000/svg">
<path d="M7.00004 3.00001C5.90537 3.00001 5.00004 3.90601 5.00004 5.00001C5.00004 6.09468 5.90537 7.00001 7.00004 7.00001C8.09404 7.00001 9.00004 6.09468 9.00004 5.00001C9.00004 3.90601 8.09404 3.00001 7.00004 3.00001Z" fill="#A6A6A6"/>
<path d="M7.00004 0.333344C1.93871 0.333344 0.417586 4.74468 0.403661 4.78934L0.333374 5.00001L0.402998 5.21068C0.417586 5.25534 1.93871 9.66668 7.00004 9.66668C12.0614 9.66668 13.5825 5.25534 13.5964 5.21068L13.6667 5.00001L13.5971 4.78934C13.5825 4.74468 12.0614 0.333344 7.00004 0.333344ZM7.00004 8.33334C3.45187 8.33334 2.07729 5.76934 1.74442 5.00001C2.07862 4.22801 3.45386 1.66668 7.00004 1.66668C10.5482 1.66668 11.9228 4.23068 12.2557 5.00001C11.9215 5.77201 10.5462 8.33334 7.00004 8.33334Z" fill="#A6A6A6"/>
</svg>
